<svg xmlns="http://www.w3.org/2000/svg" viewBox="0 0 1280 640" role="img" aria-labelledby="title desc"><title id="title">QCalendar social preview</title><desc id="desc">Vue calendar views, schedulers, agendas, and task grids.</desc><defs><linearGradient id="bg" x1="0" x2="1" y1="0" y2="1"><stop offset="0" stop-color="#071321"/><stop offset=".52" stop-color="#12395f"/><stop offset="1" stop-color="#1d2451"/></linearGradient><radialGradient id="glowA" cx="0" cy="0" r="1" gradientTransform="translate(362 246) rotate(42) scale(500 286)"><stop offset="0" stop-color="#51d1ff" stop-opacity=".34"/><stop offset=".52" stop-color="#51d1ff" stop-opacity=".08"/><stop offset="1" stop-color="#51d1ff" stop-opacity="0"/></radialGradient><radialGradient id="glowB" cx="0" cy="0" r="1" gradientTransform="translate(1040 132) rotate(124) scale(430 380)"><stop offset="0" stop-color="#7f8cff" stop-opacity=".3"/><stop offset=".58" stop-color="#7f8cff" stop-opacity=".08"/><stop offset="1" stop-color="#7f8cff" stop-opacity="0"/></radialGradient><pattern id="grid" width="64" height="64" patternUnits="userSpaceOnUse"><path d="M64 0H0v64" fill="none" stroke="#c5eaff" stroke-opacity=".055"/></pattern><filter id="softShadow" x="-30%" y="-30%" width="160%" height="160%"><feDropShadow dx="0" dy="22" stdDeviation="20" flood-color="#000814" flood-opacity=".5"/></filter></defs><rect width="1280" height="640" fill="url(#bg)"/><rect width="1280" height="640" fill="url(#grid)"/><rect width="1280" height="640" fill="url(#glowA)"/><rect width="1280" height="640" fill="url(#glowB)"/><circle cx="1120" cy="112" r="88" fill="#cfe8ff" opacity=".055"/><circle cx="116" cy="518" r="118" fill="#51d1ff" opacity=".08"/><circle cx="1092" cy="503" r="156" fill="#ffffff" opacity=".026"/><g filter="url(#softShadow)"><rect x="62" y="82" width="356" height="356" rx="56" fill="#031321" opacity=".9"/><rect x="76" y="96" width="328" height="328" rx="48" fill="#eef4f2" opacity=".95"/><g transform="translate(138 136)">
      <rect x="0" y="16" width="204" height="194" rx="34" fill="#f9fbff"/>
      <rect x="0" y="16" width="204" height="58" rx="34" fill="#1d7bea"/>
      <rect x="0" y="48" width="204" height="26" fill="#1d7bea"/>
      <rect x="32" y="0" width="24" height="48" rx="12" fill="#10263d"/>
      <rect x="148" y="0" width="24" height="48" rx="12" fill="#10263d"/>
      <g fill="#dbe9f7">
        <rect x="32" y="100" width="28" height="24" rx="6"/><rect x="72" y="100" width="28" height="24" rx="6"/><rect x="112" y="100" width="28" height="24" rx="6"/><rect x="152" y="100" width="28" height="24" rx="6"/>
        <rect x="32" y="138" width="28" height="24" rx="6"/><rect x="72" y="138" width="28" height="24" rx="6"/><rect x="112" y="138" width="28" height="24" rx="6"/><rect x="152" y="138" width="28" height="24" rx="6"/>
        <rect x="32" y="176" width="28" height="24" rx="6"/><rect x="72" y="176" width="28" height="24" rx="6"/><rect x="112" y="176" width="28" height="24" rx="6"/><rect x="152" y="176" width="28" height="24" rx="6"/>
      </g>
      <circle cx="142" cy="150" r="34" fill="#51d1ff"/><text x="142" y="162" fill="#072033" font-family="Inter,Segoe UI,Arial,sans-serif" font-size="34" font-weight="900" text-anchor="middle">17</text>
    </g></g><g font-family="'Inter','Avenir Next','Segoe UI',Arial,sans-serif"><text x="470" y="145" fill="#51d1ff" font-size="28" font-weight="800" letter-spacing="8">VUE CALENDAR COMPONENTS</text><text x="470" y="238" fill="#fff" font-size="88" font-weight="900" letter-spacing="-3">QCalendar</text><text x="475" y="302" fill="#c9d8f2" font-size="29" font-weight="750">Calendars, schedulers, agendas, and task grids for Vue.</text><text x="475" y="344" fill="#b9c9e8" font-size="26" font-weight="700">Use standalone or with Quasar app-extension support.</text><g font-size="24" font-weight="800" fill="#eef7ff"><g><rect x="474" y="432" width="94" height="58" rx="18" fill="#174d75" stroke="#51d1ff" stroke-opacity=".46"/><text x="521" y="468" text-anchor="middle">Vue</text></g>
<g><rect x="586" y="432" width="94" height="58" rx="18" fill="#174d75" stroke="#51d1ff" stroke-opacity=".46"/><text x="633" y="468" text-anchor="middle">Day</text></g>
<g><rect x="698" y="432" width="113" height="58" rx="18" fill="#174d75" stroke="#51d1ff" stroke-opacity=".46"/><text x="754.5" y="468" text-anchor="middle">Month</text></g>
<g><rect x="829" y="432" width="165" height="58" rx="18" fill="#174d75" stroke="#51d1ff" stroke-opacity=".46"/><text x="911.5" y="468" text-anchor="middle">Scheduler</text></g>
<g><rect x="1012" y="432" width="152" height="58" rx="18" fill="#174d75" stroke="#51d1ff" stroke-opacity=".46"/><text x="1088" y="468" text-anchor="middle">Quasar AE</text></g></g><path d="M474 548h674" stroke="#51d1ff" stroke-width="2" stroke-opacity=".3"/><text x="474" y="598" fill="#bed0ee" font-size="23" font-weight="750">Framework-friendly calendar views with first-class Vue integration.</text></g></svg>
